<svg xmlns="http://www.w3.org/2000/svg" width="150" viewBox="0 0 150 75" height="75" version="1.0"><defs><clipPath id="a"><path d="M 83.390625 16.945312 L 126.453125 16.945312 L 126.453125 59.753906 L 83.390625 59.753906 Z M 83.390625 16.945312"/></clipPath><clipPath id="b"><path d="M 85.609375 14.644531 L 130.042969 14.644531 L 130.042969 58.921875 L 85.609375 58.921875 Z M 85.609375 14.644531"/></clipPath></defs><g clip-path="url(#a)"><path fill="#ACA2D6" d="M 104.894531 16.964844 C 116.769531 16.964844 126.398438 26.542969 126.398438 38.359375 C 126.398438 50.175781 116.769531 59.753906 104.894531 59.753906 C 93.019531 59.753906 83.390625 50.175781 83.390625 38.359375 C 83.390625 26.542969 93.019531 16.964844 104.894531 16.964844"/></g><g clip-path="url(#b)"><path fill="#7161A2" d="M 128.601562 36.742188 C 128.589844 41.046875 127.246094 45.214844 124.757812 48.730469 C 122.367188 52.113281 118.882812 54.734375 114.984375 56.160156 C 110.875 57.660156 106.339844 57.808594 102.132812 56.632812 C 98.074219 55.5 94.464844 53.09375 91.769531 49.878906 C 86.175781 43.203125 85.5625 33.425781 90.050781 26.019531 C 92.21875 22.445312 95.484375 19.617188 99.289062 17.882812 C 103.226562 16.085938 107.761719 15.628906 111.996094 16.484375 C 116.144531 17.324219 119.941406 19.449219 122.867188 22.484375 C 125.808594 25.53125 127.707031 29.457031 128.371094 33.621094 C 128.535156 34.652344 128.597656 35.699219 128.601562 36.742188 C 128.605469 37.671875 130.050781 37.671875 130.046875 36.742188 C 130.035156 32.375 128.738281 28.078125 126.292969 24.445312 C 123.925781 20.921875 120.527344 18.109375 116.617188 16.4375 C 112.496094 14.671875 107.925781 14.214844 103.519531 15.046875 C 99.296875 15.847656 95.363281 17.957031 92.285156 20.933594 C 85.917969 27.085938 83.882812 36.78125 87.191406 44.96875 C 88.796875 48.941406 91.542969 52.351562 95.046875 54.835938 C 98.605469 57.359375 102.921875 58.726562 107.28125 58.847656 C 116.066406 59.09375 124.371094 53.890625 128.027344 45.957031 C 129.359375 43.070312 130.039062 39.921875 130.046875 36.742188 C 130.050781 35.816406 128.605469 35.816406 128.601562 36.742188"/></g><g fill="#210D41"><g><g><path d="M 10.25 -3.09375 C 8.707031 -6.46875 7.691406 -8.804688 7.203125 -10.109375 L 7.203125 -3.046875 C 7.203125 -1.523438 7.21875 -0.484375 7.25 0.078125 C 6.582031 0.273438 5.859375 0.375 5.078125 0.375 C 4.828125 0.375 4.457031 0.347656 3.96875 0.296875 C 3.425781 0.242188 3.035156 0.21875 2.796875 0.21875 L 1 0.140625 L 1 -2.609375 C 1 -4.179688 0.972656 -6.410156 0.921875 -9.296875 C 0.890625 -10.742188 0.875 -12.9375 0.875 -15.875 C 0.875 -19.820312 0.988281 -23.132812 1.21875 -25.8125 C 1.875 -25.976562 2.609375 -26.0625 3.421875 -26.0625 C 3.960938 -26.0625 4.617188 -26.007812 5.390625 -25.90625 C 6.160156 -25.8125 6.691406 -25.671875 6.984375 -25.484375 C 7.328125 -24.835938 7.75 -23.945312 8.25 -22.8125 C 8.75 -21.675781 9.234375 -20.539062 9.703125 -19.40625 L 11.171875 -16.03125 C 11.128906 -17.75 11.109375 -19.769531 11.109375 -22.09375 C 11.109375 -23.976562 11.117188 -25.28125 11.140625 -26 C 12.140625 -26.1875 13.207031 -26.28125 14.34375 -26.28125 C 15.289062 -26.28125 16.28125 -26.171875 17.3125 -25.953125 L 17.3125 0.109375 C 17.238281 0.109375 17.09375 0.144531 16.875 0.21875 C 16.625 0.320312 16.195312 0.375 15.59375 0.375 C 15.46875 0.394531 14.816406 0.351562 13.640625 0.25 C 13.347656 0.226562 12.972656 0.203125 12.515625 0.171875 C 12.066406 0.148438 11.804688 0.15625 11.734375 0.1875 Z M 10.25 -3.09375" transform="translate(5.423 51.39)"/></g></g></g><g fill="#210D41"><g><g><path d="M 16.65625 0.109375 C 15.875 0.285156 15.03125 0.375 14.125 0.375 C 13.039062 0.375 11.863281 0.238281 10.59375 -0.03125 C 10.414062 -0.5 10.144531 -1.484375 9.78125 -2.984375 C 9.414062 -4.492188 9.117188 -5.5 8.890625 -6 L 8.15625 -6.03125 L 7.53125 -6 C 7.4375 -5.695312 7.28125 -4.972656 7.0625 -3.828125 C 6.882812 -2.867188 6.707031 -2.085938 6.53125 -1.484375 C 6.363281 -0.890625 6.125 -0.347656 5.8125 0.140625 C 5.5625 0.191406 5.191406 0.21875 4.703125 0.21875 C 4.484375 0.21875 4.003906 0.191406 3.265625 0.140625 C 1.140625 0.046875 -0.046875 0 -0.296875 0 C -0.296875 -0.125 -0.269531 -0.410156 -0.21875 -0.859375 C -0.164062 -1.316406 -0.09375 -1.828125 0 -2.390625 L 0.8125 -7.015625 C 1.445312 -10.816406 2.050781 -14.125 2.625 -16.9375 C 3.207031 -19.757812 3.960938 -22.742188 4.890625 -25.890625 C 5.234375 -25.929688 5.695312 -25.953125 6.28125 -25.953125 L 6.5 -25.953125 C 8.09375 -25.953125 9.648438 -26.015625 11.171875 -26.140625 C 11.472656 -24.984375 11.742188 -23.847656 11.984375 -22.734375 C 12.234375 -21.617188 12.453125 -20.625 12.640625 -19.75 C 13.429688 -16.332031 13.960938 -14.0625 14.234375 -12.9375 Z M 8.96875 -10.703125 C 8.425781 -15.597656 8.171875 -18.046875 8.203125 -18.046875 L 8.15625 -18.421875 C 8.15625 -18.421875 8.132812 -18.125 8.09375 -17.53125 C 8.019531 -15.695312 7.90625 -14.238281 7.75 -13.15625 L 7.421875 -10.703125 Z M 8.96875 -10.703125" transform="translate(23.735 51.39)"/></g></g></g><g fill="#210D41"><g><g><path d="M 16.4375 -25.734375 C 16.476562 -24.898438 16.5 -24.117188 16.5 -23.390625 C 16.5 -21.960938 16.414062 -20.6875 16.25 -19.5625 C 15.4375 -19.707031 14.800781 -19.78125 14.34375 -19.78125 L 12.609375 -19.8125 C 11.972656 -19.8125 11.65625 -19.773438 11.65625 -19.703125 C 11.601562 -19.359375 11.578125 -18.632812 11.578125 -17.53125 C 11.578125 -15.375 11.664062 -9.566406 11.84375 -0.109375 C 11.125 0.015625 10.289062 0.078125 9.34375 0.078125 L 8.265625 0.078125 C 7.046875 0.078125 5.921875 0.160156 4.890625 0.328125 C 4.816406 0.203125 4.757812 -0.046875 4.71875 -0.421875 C 4.6875 -0.804688 4.679688 -1.15625 4.703125 -1.46875 L 4.703125 -3.265625 L 4.75 -6.578125 C 4.75 -11.035156 4.648438 -15.390625 4.453125 -19.640625 C 4.179688 -19.753906 3.800781 -19.8125 3.3125 -19.8125 L 1.84375 -19.78125 C 1.007812 -19.78125 0.40625 -19.84375 0.03125 -19.96875 C -0.0390625 -20.113281 -0.0976562 -20.515625 -0.140625 -21.171875 C -0.191406 -21.835938 -0.21875 -22.585938 -0.21875 -23.421875 C -0.21875 -24.648438 -0.207031 -25.53125 -0.1875 -26.0625 L 1.390625 -26.0625 L 2.828125 -26.109375 L 4.890625 -26.109375 L 7.015625 -26.140625 C 10.671875 -26.140625 13.648438 -26.003906 15.953125 -25.734375 Z M 16.4375 -25.734375" transform="translate(39.693 51.39)"/></g></g></g><g fill="#210D41"><g><g><path d="M 8.71875 -25.703125 C 8.71875 -22.828125 8.679688 -19.929688 8.609375 -17.015625 C 8.503906 -13.148438 8.453125 -10.101562 8.453125 -7.875 C 8.453125 -5.289062 8.523438 -2.726562 8.671875 -0.1875 C 8.304688 0.1875 7.351562 0.375 5.8125 0.375 C 4.925781 0.375 4.273438 0.359375 3.859375 0.328125 L 3.421875 0.296875 L 2.75 0.25 C 2.257812 0.25 1.632812 0.347656 0.875 0.546875 C 1.03125 -1.578125 1.109375 -3.84375 1.109375 -6.25 C 1.109375 -7.207031 1.082031 -8.617188 1.03125 -10.484375 L 1 -12.609375 C 0.894531 -15.203125 0.84375 -17.3125 0.84375 -18.9375 C 0.84375 -21.363281 0.953125 -23.753906 1.171875 -26.109375 C 1.492188 -26.148438 1.835938 -26.171875 2.203125 -26.171875 C 2.398438 -26.171875 2.671875 -26.148438 3.015625 -26.109375 C 3.359375 -26.078125 3.765625 -26.078125 4.234375 -26.109375 C 5.503906 -26.035156 6.519531 -26.007812 7.28125 -26.03125 L 8.71875 -26.03125 Z M 8.71875 -25.703125" transform="translate(55.982 51.39)"/></g></g></g><g fill="#210D41"><g><g><path d="M 16.953125 -25.328125 C 16.191406 -21.285156 15.332031 -17.351562 14.375 -13.53125 C 13.414062 -9.707031 12.210938 -5.148438 10.765625 0.140625 C 10.234375 0.140625 9.867188 0.15625 9.671875 0.1875 L 9.296875 0.21875 C 8.859375 0.269531 8.40625 0.296875 7.9375 0.296875 C 6.394531 0.296875 5.195312 0.148438 4.34375 -0.140625 C 2.207031 -7.671875 0.769531 -15.96875 0.03125 -25.03125 C 0.257812 -25.28125 0.710938 -25.460938 1.390625 -25.578125 C 2.078125 -25.703125 2.835938 -25.765625 3.671875 -25.765625 C 4.460938 -25.765625 5.347656 -25.679688 6.328125 -25.515625 L 6.546875 -22.25 C 6.691406 -19.820312 6.847656 -17.71875 7.015625 -15.9375 C 7.191406 -14.15625 7.4375 -12.394531 7.75 -10.65625 C 8.050781 -12.007812 8.507812 -14.460938 9.125 -18.015625 C 9.851562 -22.347656 10.34375 -24.929688 10.59375 -25.765625 C 11.539062 -25.578125 12.628906 -25.484375 13.859375 -25.484375 C 15.085938 -25.484375 15.957031 -25.429688 16.46875 -25.328125 Z M 16.953125 -25.328125" transform="translate(65.542 51.39)"/></g></g></g><g fill="#210D41"><g><g><path d="M 17.640625 -3.265625 C 17.640625 -2.015625 17.507812 -0.898438 17.25 0.078125 C 16.164062 0.078125 14.570312 0.0976562 12.46875 0.140625 L 7.640625 0.1875 C 5.460938 0.1875 3.285156 0.113281 1.109375 -0.03125 C 1.128906 -0.820312 1.09375 -3.875 1 -9.1875 C 0.914062 -12.207031 0.875 -14.523438 0.875 -16.140625 C 0.875 -19.492188 0.960938 -22.617188 1.140625 -25.515625 L 4.375 -25.625 C 8 -25.769531 10.769531 -25.84375 12.6875 -25.84375 C 14.320312 -25.84375 15.914062 -25.78125 17.46875 -25.65625 C 17.5625 -25.144531 17.609375 -24.546875 17.609375 -23.859375 C 17.609375 -23.492188 17.582031 -22.894531 17.53125 -22.0625 C 17.488281 -21.28125 17.46875 -20.664062 17.46875 -20.21875 C 15.988281 -19.90625 14.34375 -19.75 12.53125 -19.75 L 7.75 -19.703125 C 7.632812 -18.554688 7.578125 -17.601562 7.578125 -16.84375 C 7.578125 -16.25 7.648438 -15.734375 7.796875 -15.296875 L 10.21875 -15.59375 C 10.5625 -15.59375 11.078125 -15.566406 11.765625 -15.515625 L 12.25 -15.484375 C 12.363281 -14.742188 12.421875 -13.945312 12.421875 -13.09375 L 12.359375 -10.140625 C 11.566406 -9.921875 10.507812 -9.8125 9.1875 -9.8125 L 8.234375 -9.859375 C 8.066406 -9.859375 7.957031 -9.832031 7.90625 -9.78125 L 7.75 -7.875 C 7.75 -6.863281 7.800781 -6.03125 7.90625 -5.375 C 9.175781 -5.375 10.414062 -5.332031 11.625 -5.25 C 12.039062 -5.226562 12.550781 -5.203125 13.15625 -5.171875 C 13.769531 -5.148438 14.492188 -5.140625 15.328125 -5.140625 L 17.578125 -5.21875 C 17.617188 -4.09375 17.640625 -3.441406 17.640625 -3.265625 Z M 17.640625 -3.265625" transform="translate(81.72 51.39)"/></g></g></g><g fill="#210D41"><g><g><path d="M 17.796875 -24.78125 C 17.921875 -22.15625 17.984375 -19.726562 17.984375 -17.5 C 17.984375 -13.257812 17.773438 -9.265625 17.359375 -5.515625 C 17.160156 -3.828125 16.476562 -2.410156 15.3125 -1.265625 C 14.144531 -0.128906 12.644531 0.523438 10.8125 0.703125 L 10.84375 0.703125 C 10.40625 0.742188 10 0.765625 9.625 0.765625 C 8.1875 0.765625 6.804688 0.535156 5.484375 0.078125 C 4.160156 -0.367188 3.0625 -1.054688 2.1875 -1.984375 C 1.3125 -2.910156 0.851562 -4.050781 0.8125 -5.40625 C 0.8125 -7.195312 0.832031 -9.878906 0.875 -13.453125 L 0.921875 -15.84375 C 0.972656 -18.445312 1 -20.375 1 -21.625 C 1 -23.238281 0.984375 -24.425781 0.953125 -25.1875 L 1.875 -25.1875 L 4.078125 -25.265625 C 5.273438 -25.265625 6.332031 -25.128906 7.25 -24.859375 C 7.144531 -22.109375 7.09375 -20 7.09375 -18.53125 C 7.09375 -14.976562 7.253906 -11.046875 7.578125 -6.734375 L 7.578125 -6.765625 C 7.722656 -6.273438 7.941406 -5.898438 8.234375 -5.640625 C 8.523438 -5.378906 8.84375 -5.25 9.1875 -5.25 C 9.582031 -5.25 9.953125 -5.410156 10.296875 -5.734375 C 10.640625 -6.054688 10.875 -6.460938 11 -6.953125 L 11 -6.90625 C 11.09375 -9.164062 11.164062 -12.734375 11.21875 -17.609375 L 11.25 -19.96875 C 11.25 -21.144531 11.273438 -22.757812 11.328125 -24.8125 L 12.09375 -24.921875 C 12.4375 -24.921875 12.90625 -24.957031 13.5 -25.03125 C 14.5 -25.132812 15.097656 -25.171875 15.296875 -25.140625 C 16.347656 -25.140625 17.082031 -25.019531 17.5 -24.78125 Z M 17.796875 -24.78125" transform="translate(115.672 51.39)"/></g></g></g><g fill="#210D41"><g><g><path d="M 8.71875 -25.703125 C 8.71875 -22.828125 8.679688 -19.929688 8.609375 -17.015625 C 8.503906 -13.148438 8.453125 -10.101562 8.453125 -7.875 C 8.453125 -5.289062 8.523438 -2.726562 8.671875 -0.1875 C 8.304688 0.1875 7.351562 0.375 5.8125 0.375 C 4.925781 0.375 4.273438 0.359375 3.859375 0.328125 L 3.421875 0.296875 L 2.75 0.25 C 2.257812 0.25 1.632812 0.347656 0.875 0.546875 C 1.03125 -1.578125 1.109375 -3.84375 1.109375 -6.25 C 1.109375 -7.207031 1.082031 -8.617188 1.03125 -10.484375 L 1 -12.609375 C 0.894531 -15.203125 0.84375 -17.3125 0.84375 -18.9375 C 0.84375 -21.363281 0.953125 -23.753906 1.171875 -26.109375 C 1.492188 -26.148438 1.835938 -26.171875 2.203125 -26.171875 C 2.398438 -26.171875 2.671875 -26.148438 3.015625 -26.109375 C 3.359375 -26.078125 3.765625 -26.078125 4.234375 -26.109375 C 5.503906 -26.035156 6.519531 -26.007812 7.28125 -26.03125 L 8.71875 -26.03125 Z M 8.71875 -25.703125" transform="translate(134.241 51.39)"/></g></g></g></svg>